<svg xmlns="http://www.w3.org/2000/svg" xmlns:xlink="http://www.w3.org/1999/xlink" width="48" zoomAndPan="magnify" viewBox="0 0 36 36.000001" height="48" preserveAspectRatio="xMidYMid meet" version="1.0"><defs><clipPath id="e6c73747b9"><path d="M 3.78125 3.503906 L 32.242188 3.503906 L 32.242188 31.960938 L 3.78125 31.960938 Z M 3.78125 3.503906 " clip-rule="nonzero"/></clipPath></defs><g clip-path="url(#e6c73747b9)"><path fill="#2a60e9" d="M 25.101562 4.035156 C 25.101562 3.761719 24.851562 3.539062 24.542969 3.539062 L 11.445312 3.539062 C 11.140625 3.539062 10.886719 3.761719 10.886719 4.035156 L 10.886719 10.609375 L 25.101562 10.609375 Z M 25.289062 25.1875 C 25.195312 24.941406 24.925781 24.777344 24.621094 24.777344 L 11.359375 24.777344 C 11.054688 24.777344 10.785156 24.941406 10.695312 25.1875 L 8.527344 30.9375 C 8.457031 31.117188 8.496094 31.3125 8.628906 31.464844 C 8.761719 31.617188 8.96875 31.710938 9.191406 31.710938 L 26.796875 31.710938 C 27.023438 31.710938 27.230469 31.617188 27.363281 31.464844 C 27.496094 31.3125 27.53125 31.113281 27.464844 30.933594 Z M 10.316406 15.34375 L 10.316406 17.707031 L 25.675781 17.707031 L 25.675781 15.355469 C 25.675781 15.355469 23.820312 12.054688 23.816406 12.027344 L 12.15625 12.027344 C 12.148438 12.054688 10.316406 15.34375 10.316406 15.34375 Z M 29.144531 12.027344 L 25.304688 12.027344 L 26.949219 14.9375 L 26.949219 14.941406 C 26.972656 14.988281 27.019531 15.09375 27.019531 15.199219 C 27.019531 15.300781 27.019531 18.492188 27.019531 18.492188 C 27.019531 18.800781 26.769531 19.046875 26.460938 19.046875 L 9.527344 19.046875 C 9.222656 19.046875 8.972656 18.800781 8.972656 18.492188 C 8.972656 18.492188 8.972656 15.363281 8.972656 15.199219 C 8.972656 15.035156 9.039062 14.933594 9.042969 14.925781 L 10.667969 12.027344 L 6.847656 12.027344 C 5.15625 12.027344 3.78125 13.40625 3.78125 15.09375 L 3.78125 25.011719 C 3.78125 26.699219 5.15625 28.078125 6.847656 28.078125 L 7.78125 28.078125 L 9.097656 24.585938 C 9.441406 23.679688 10.347656 23.070312 11.359375 23.070312 L 24.621094 23.070312 C 25.628906 23.070312 26.539062 23.675781 26.882812 24.582031 L 28.203125 28.078125 L 29.144531 28.078125 C 30.832031 28.078125 32.207031 26.699219 32.207031 25.011719 L 32.207031 15.09375 C 32.207031 13.40625 30.832031 12.027344 29.144531 12.027344 Z M 29.144531 12.027344 " fill-opacity="1" fill-rule="nonzero"/></g></svg>